name analog
datacolumns 19
datarows 57
range 0.0 0.028
endheader
time	ground_force_vx	ground_force_vy	ground_force_vz	ground_force_px	ground_force_py	ground_force_pz	l_ground_force_vx	l_ground_force_vy	l_ground_force_vz	l_ground_force_px	l_ground_force_py	l_ground_force_pz	ground_torque_x	ground_torque_y	ground_torque_z	l_ground_torque_x	l_ground_torque_y	l_ground_torque_z
0.0	-0.0	-0.0	-0.0	-0.2977469563484192	17.469558715820312	-215.016845703125	1.781807780265808	1.0598602294921875	-536.8355102539062	-0.0	-0.0	-0.0	-0.0	-0.0	-0.0	185975.6875	-18850.587890625	-456.98681640625
0.0005	-0.0	-0.0	-0.0	0.1130028441548347	17.689407348632812	-218.00621032714844	1.8629264831542969	1.7020100355148315	-535.0317993164062	-0.0	-0.0	-0.0	-0.0	-0.0	-0.0	185459.09375	-19090.009765625	-416.6821594238281
0.001	-0.0	-0.0	-0.0	0.6899404525756836	18.07550811767578	-218.8775634765625	2.2177696228027344	1.861832857131958	-532.040771484375	-0.0	-0.0	-0.0	-0.0	-0.0	-0.0	184841.546875	-19113.580078125	-138.25973510742188
0.0015	-0.0	-0.0	-0.0	1.1597366333007812	18.408185958862305	-219.3465881347656	2.733006238937378	2.13667368888855	-533.2214965820312	-0.0	-0.0	-0.0	-0.0	-0.0	-0.0	184862.828125	-19026.6171875	-27.177610397338867
0.002	-0.0	-0.0	-0.0	1.2489471435546875	18.60988998413086	-219.9376220703125	2.920879364013672	2.154059886932373	-530.9917602539062	-0.0	-0.0	-0.0	-0.0	-0.0	-0.0	184644.421875	-18667.76171875	0.4253573715686798
0.0025	-0.0	-0.0	-0.0	1.9676653146743772	18.98477554321289	-219.86447143554688	2.525065898895264	2.249025583267212	-531.5023803710938	-0.0	-0.0	-0.0	-0.0	-0.0	-0.0	184855.28125	-18980.380859375	75.46000671386719
0.003	-0.0	-0.0	-0.0	1.9908621311187744	19.38823127746582	-220.9600982666016	3.010073661804199	2.102189779281616	-533.7835083007812	-0.0	-0.0	-0.0	-0.0	-0.0	-0.0	185309.46875	-18646.580078125	24.41339111328125
0.0035	-0.0	-0.0	-0.0	2.2914867401123047	19.5150146484375	-220.71945190429688	2.3301327228546143	2.1844935417175293	-533.1078491210938	-0.0	-0.0	-0.0	-0.0	-0.0	-0.0	185696.171875	-18455.560546875	-13.606189727783203
0.004	-0.0	-0.0	-0.0	2.854736328125	19.388011932373047	-218.9886016845703	1.7506239414215088	2.4786388874053955	-535.5986328125	-0.0	-0.0	-0.0	-0.0	-0.0	-0.0	186249.28125	-18238.6953125	-211.7710723876953
0.0045000000000000005	-0.0	-0.0	-0.0	2.389390230178833	19.782939910888672	-216.68382263183597	1.7923684120178225	2.2548744678497314	-537.2306518554688	-0.0	-0.0	-0.0	-0.0	-0.0	-0.0	187095.4375	-18256.162109375	-251.19415283203125
0.005	-0.0	-0.0	-0.0	2.7422688007354736	19.321874618530277	-216.5762634277344	1.1114712953567505	1.8183197975158687	-537.6011352539062	-0.0	-0.0	-0.0	-0.0	-0.0	-0.0	187683.171875	-17874.76953125	-396.6175537109375
0.0055	-0.0	-0.0	-0.0	2.276654958724976	19.51955795288086	-213.85752868652344	1.0830092430114746	2.254657506942749	-541.7184448242188	-0.0	-0.0	-0.0	-0.0	-0.0	-0.0	188541.515625	-17906.19921875	-234.32064819335935
0.006	-0.0	-0.0	-0.0	2.719279527664185	19.45352935791016	-210.560791015625	0.6863483786582947	2.2034215927124023	-543.4453125	-0.0	-0.0	-0.0	-0.0	-0.0	-0.0	189702.59375	-17854.36328125	-251.87245178222656
0.006500000000000001	-0.0	-0.0	-0.0	2.2702369689941406	19.338212966918945	-207.9316253662109	0.5322647094726562	2.026971340179444	-548.792236328125	-0.0	-0.0	-0.0	-0.0	-0.0	-0.0	191171.78125	-17690.05078125	-444.0671691894531
0.007	-0.0	-0.0	-0.0	2.207261085510254	18.961793899536133	-203.2384490966797	0.5281074643135071	1.98516845703125	-553.330322265625	-0.0	-0.0	-0.0	-0.0	-0.0	-0.0	192772.484375	-17557.55859375	-362.8521728515625
0.0075	-0.0	-0.0	-0.0	1.603187918663025	18.386394500732425	-198.41685485839844	0.6673126816749573	1.5706695318222046	-558.27783203125	-0.0	-0.0	-0.0	-0.0	-0.0	-0.0	194636.109375	-17763.53125	-206.7747344970703
0.008	-0.0	-0.0	-0.0	1.205520510673523	18.289894104003903	-192.9362030029297	1.0608084201812744	1.6744073629379272	-563.4397583007812	-0.0	-0.0	-0.0	-0.0	-0.0	-0.0	196660.34375	-17571.06640625	-228.40548706054688
0.0085	-0.0	-0.0	-0.0	0.8900392055511475	17.560752868652344	-187.3742218017578	0.8905390501022339	1.812302589416504	-569.73828125	-0.0	-0.0	-0.0	-0.0	-0.0	-0.0	198708.78125	-18011.69921875	-94.45393371582033
0.009000000000000001	-0.0	-0.0	-0.0	0.8921051025390625	16.97840690612793	-182.9323883056641	1.6197811365127563	2.054285049438477	-576.35888671875	-0.0	-0.0	-0.0	-0.0	-0.0	-0.0	200890.640625	-18088.291015625	68.6884994506836
0.0095	-0.0	-0.0	-0.0	0.2481767386198043	16.020782470703125	-178.619140625	1.840000033378601	2.074068546295166	-582.22802734375	-0.0	-0.0	-0.0	-0.0	-0.0	-0.0	203387.4375	-18162.861328125	437.1265258789063
0.01	-0.0	-0.0	-0.0	0.0	15.376996040344238	-173.1477813720703	2.2433290481567383	2.3391778469085693	-589.4578857421875	-0.0	-0.0	-0.0	-0.0	-0.0	-0.0	206001.34375	-18401.2890625	492.0986022949219
0.0105	-0.0	-0.0	-0.0	-0.3365366458892822	14.63995361328125	-165.5474395751953	3.0617780685424805	2.558828115463257	-597.8372802734375	-0.0	-0.0	-0.0	-0.0	-0.0	-0.0	208271.671875	-18558.20703125	589.3222045898438
0.011	-0.0	-0.0	-0.0	-1.2697625160217283	13.770222663879396	-159.98715209960938	2.997877597808838	2.364264249801636	-603.4234619140625	-0.0	-0.0	-0.0	-0.0	-0.0	-0.0	210696.75	-18500.40625	670.5450439453125
0.0115	-0.0	-0.0	-0.0	-1.494112491607666	13.102823257446287	-153.71702575683594	3.373037576675415	2.099153995513916	-612.2333984375	-0.0	-0.0	-0.0	-0.0	-0.0	-0.0	213439.59375	-18912.986328125	892.853271484375
0.012	-0.0	-0.0	-0.0	-2.140230655670166	12.232839584350586	-146.47772216796875	3.3954193592071533	2.074670791625977	-621.1407470703125	-0.0	-0.0	-0.0	-0.0	-0.0	-0.0	216138.421875	-19040.666015625	996.985595703125
0.0125	-0.0	-0.0	-0.0	-2.564652919769287	11.274935722351074	-138.7992401123047	4.037088394165039	1.8337918519973757	-627.3425903320312	-0.0	-0.0	-0.0	-0.0	-0.0	-0.0	218861.546875	-19105.1171875	989.7913208007812
0.013000000000000001	-0.0	-0.0	-0.0	-2.877095937728882	10.138602256774902	-132.44247436523438	4.190608501434326	1.6557077169418335	-634.5021362304688	-0.0	-0.0	-0.0	-0.0	-0.0	-0.0	221617.640625	-19270.181640625	1182.4376220703125
0.0135	-0.0	-0.0	-0.0	-3.45666766166687	9.738055229187012	-125.11367797851562	4.900476455688477	1.3695133924484253	-643.2256469726562	-0.0	-0.0	-0.0	-0.0	-0.0	-0.0	224395.421875	-19242.57421875	1286.891357421875
0.014	-0.0	-0.0	-0.0	-3.6797807216644287	8.244867324829102	-118.2275848388672	4.568990230560303	0.7073394656181335	-650.6455688476562	-0.0	-0.0	-0.0	-0.0	-0.0	-0.0	227225.828125	-19709.177734375	1353.2716064453125
0.0145	-0.0	-0.0	-0.0	-4.416323184967041	7.374937057495117	-111.42986297607422	5.1681227684021	0.4854826927185058	-659.1982421875	-0.0	-0.0	-0.0	-0.0	-0.0	-0.0	229951.671875	-19834.259765625	1583.4571533203125
0.015	-0.0	-0.0	-0.0	-4.996885776519775	6.797015190124512	-102.77536010742188	5.566530227661133	-0.0883216857910156	-668.2762451171875	-0.0	-0.0	-0.0	-0.0	-0.0	-0.0	232728.921875	-19868.140625	1761.4591064453125
0.0155	-0.0	-0.0	-0.0	-5.241440773010254	6.106078147888184	-96.51025390625	6.0323333740234375	-0.5739540457725525	-676.7428588867188	-0.0	-0.0	-0.0	-0.0	-0.0	-0.0	235303.125	-19811.150390625	1858.162109375
0.016	-0.0	-0.0	-0.0	-5.556042194366455	5.304026126861572	-89.08811950683594	6.209754943847656	-0.8170879483222961	-684.0751953125	-0.0	-0.0	-0.0	-0.0	-0.0	-0.0	237912.6875	-19872.287109375	1924.9176025390625
0.0165	-0.0	-0.0	-0.0	-5.640280246734619	4.72573709487915	-84.94338989257812	5.788268566131592	-0.7285443544387817	-690.7088012695312	-0.0	-0.0	-0.0	-0.0	-0.0	-0.0	240405.015625	-20010.05859375	1969.137451171875
0.017	-0.0	-0.0	-0.0	-5.54880428314209	4.097978115081787	-77.6995849609375	6.387176513671875	-0.7948951721191406	-697.3399047851562	-0.0	-0.0	-0.0	-0.0	-0.0	-0.0	242921.171875	-19873.287109375	1976.893310546875
0.0175	-0.0	-0.0	-0.0	-6.560371398925781	3.83034348487854	-71.24732208251953	6.631350040435791	-0.8832168579101562	-705.638916015625	-0.0	-0.0	-0.0	-0.0	-0.0	-0.0	245440.34375	-20062.025390625	2007.254150390625
0.018000000000000002	-0.0	-0.0	-0.0	-6.690788269042969	2.984591007232666	-64.63192749023438	7.09686279296875	-0.8384755253791809	-711.480224609375	-0.0	-0.0	-0.0	-0.0	-0.0	-0.0	247802.890625	-20309.923828125	1955.3424072265625
0.0185	-0.0	-0.0	-0.0	-6.577211380004883	3.2789790630340576	-60.84341430664063	6.939919471740723	-0.9280545115470886	-717.3346557617188	-0.0	-0.0	-0.0	-0.0	-0.0	-0.0	249776.234375	-20069.9765625	2236.80517578125
0.019	-0.0	-0.0	-0.0	-7.118342399597168	2.56325912475586	-54.73084259033203	7.142043113708496	-0.9948505759239196	-723.6134643554688	-0.0	-0.0	-0.0	-0.0	-0.0	-0.0	251962.953125	-20088.853515625	2244.7373046875
0.0195	-0.0	-0.0	-0.0	-7.204558372497559	2.0714728832244877	-53.330169677734375	7.585693836212158	-0.924625039100647	-728.8576049804688	-0.0	-0.0	-0.0	-0.0	-0.0	-0.0	253712.953125	-20161.6875	2147.61669921875
0.02	-0.0	-0.0	-0.0	-7.247483730316162	2.021629095077514	-48.92231369018555	7.345509052276611	-1.2365036010742188	-732.0775146484375	-0.0	-0.0	-0.0	-0.0	-0.0	-0.0	255249.40625	-19942.673828125	2274.557861328125
0.0205	-0.0	-0.0	-0.0	-7.2649970054626465	2.228260040283203	-44.20217514038086	7.161614418029785	-1.8571200370788572	-736.3607177734375	-0.0	-0.0	-0.0	-0.0	-0.0	-0.0	256755.0625	-20068.099609375	2206.183837890625
0.021	-0.0	-0.0	-0.0	-7.272640228271484	2.0034520626068115	-42.481666564941406	7.274284362792969	-1.7853175401687622	-741.2286376953125	-0.0	-0.0	-0.0	-0.0	-0.0	-0.0	257994.71875	-19799.69921875	2177.39599609375
0.021500000000000002	-0.0	-0.0	-0.0	-7.264339447021484	2.1857986450195312	-41.6919059753418	6.739208698272705	-2.119720458984375	-744.1266479492188	-0.0	-0.0	-0.0	-0.0	-0.0	-0.0	259089.6875	-19913.125	2244.359375
0.022	-0.0	-0.0	-0.0	-7.472506046295166	2.2327587604522705	-38.31111145019531	7.139667987823486	-1.8973727226257324	-747.0037841796875	-0.0	-0.0	-0.0	-0.0	-0.0	-0.0	260186.0625	-19966.33203125	2287.690185546875
0.0225	-0.0	-0.0	-0.0	-7.183794975280762	2.0077805519104004	-35.3179931640625	7.050860404968262	-2.589148759841919	-748.2059326171875	-0.0	-0.0	-0.0	-0.0	-0.0	-0.0	260582.359375	-19694.17578125	2332.43310546875
0.023	-0.0	-0.0	-0.0	-7.509749412536621	1.6934776306152344	-31.84980010986328	7.763985633850098	-2.582517147064209	-752.4217529296875	-0.0	-0.0	-0.0	-0.0	-0.0	-0.0	261691.25	-19695.6328125	2502.56298828125
0.0235	-0.0	-0.0	-0.0	-6.995249271392822	1.9712271690368648	-30.29030990600586	7.810327053070068	-2.5190486907958984	-753.7348022460938	-0.0	-0.0	-0.0	-0.0	-0.0	-0.0	262615.59375	-19736.951171875	2564.3857421875
0.024	-0.0	-0.0	-0.0	-7.60926628112793	1.5679155588150024	-26.57141876220703	8.338813781738281	-2.3596034049987797	-755.0166015625	-0.0	-0.0	-0.0	-0.0	-0.0	-0.0	263315.1875	-19707.40234375	2615.766845703125
0.0245	-0.0	-0.0	-0.0	-7.157713890075684	1.5834929943084717	-23.74569129943848	8.381013870239258	-2.077704906463623	-757.8251342773438	-0.0	-0.0	-0.0	-0.0	-0.0	-0.0	263942.75	-19707.18359375	2683.693115234375
0.025	-0.0	-0.0	-0.0	-6.910857677459717	1.0844619274139404	-23.70987892150879	8.55833911895752	-1.9385932683944704	-759.4876098632812	-0.0	-0.0	-0.0	-0.0	-0.0	-0.0	265033.71875	-19286.923828125	2840.76904296875
0.025500000000000002	-0.0	-0.0	-0.0	-0.0	-0.0	-0.0	8.250102996826172	-1.215604543685913	-761.784912109375	-0.0	-0.0	-0.0	-0.0	-0.0	-0.0	265567.0625	-19395.310546875	2816.623291015625
0.026000000000000002	-0.0	-0.0	-0.0	-0.0	-0.0	-0.0	8.114519119262695	-1.397334098815918	-762.7117919921875	-0.0	-0.0	-0.0	-0.0	-0.0	-0.0	266272.71875	-19183.88671875	2757.1767578125
0.0265	-0.0	-0.0	-0.0	-0.0	-0.0	-0.0	7.963100433349609	-0.971538543701172	-763.7794799804688	-0.0	-0.0	-0.0	-0.0	-0.0	-0.0	266583.9375	-18956.029296875	2628.060546875
0.027	-0.0	-0.0	-0.0	-0.0	-0.0	-0.0	8.025566101074219	-1.1274755001068115	-764.9912109375	-0.0	-0.0	-0.0	-0.0	-0.0	-0.0	267199.125	-18719.626953125	2518.064208984375
0.0275	-0.0	-0.0	-0.0	-0.0	-0.0	-0.0	7.368709087371826	-1.086207151412964	-765.154541015625	-0.0	-0.0	-0.0	-0.0	-0.0	-0.0	267461.0	-18420.51171875	2542.1953125
0.028	-0.0	-0.0	-0.0	-0.0	-0.0	-0.0	6.999375343322754	-0.8772869110107422	-767.16748046875	-0.0	-0.0	-0.0	-0.0	-0.0	-0.0	268095.65625	-18324.078125	2416.4521484375
